<svg width="48" height="48" viewBox="0 0 48 48" fill="none" xmlns="http://www.w3.org/2000/svg">
<path d="M24 3.5V9.61M38.5 9.5L34.18 13.82M44.5 24H38.39M38.5 38.5L34.18 34.18M24 44.5V38.39M9.5 38.5L13.82 34.18M3.5 24H9.61M9.5 9.5L13.82 13.82M24 13C26.1756 13 28.3023 13.6451 30.1113 14.8538C31.9202 16.0625 33.3301 17.7805 34.1627 19.7905C34.9952 21.8005 35.2131 24.0122 34.7886 26.146C34.3642 28.2798 33.3166 30.2398 31.7782 31.7782C30.2398 33.3166 28.2798 34.3642 26.146 34.7886C24.0122 35.2131 21.8005 34.9952 19.7905 34.1627C17.7805 33.3301 16.0625 31.9202 14.8538 30.1113C13.6451 28.3023 13 26.1756 13 24C13 21.0826 14.1589 18.2847 16.2218 16.2218C18.2847 14.1589 21.0826 13 24 13Z" stroke="#FFD233" stroke-linecap="round" stroke-linejoin="round"/>
</svg>
