<svg width="24" height="24" viewBox="0 0 24 24" fill="none" xmlns="http://www.w3.org/2000/svg">
<path d="M21.663 9.987L21.635 9.915L18.916 2.821C18.861 2.68104 18.763 2.56215 18.6362 2.48146C18.5093 2.40076 18.3601 2.36244 18.21 2.372C18.0598 2.37868 17.9156 2.43281 17.7981 2.5266C17.6806 2.62039 17.5958 2.74902 17.556 2.894L15.72 8.52H8.282L6.443 2.895C6.40365 2.74996 6.31935 2.62112 6.20221 2.52697C6.08507 2.43283 5.94111 2.37822 5.791 2.371C5.64093 2.36283 5.49207 2.40183 5.36528 2.48253C5.23849 2.56323 5.14014 2.68158 5.084 2.821L2.362 9.925L2.334 9.995C1.94321 11.0181 1.89514 12.1405 2.19703 13.1933C2.49891 14.2461 3.13442 15.1724 4.008 15.833L4.018 15.84L4.042 15.859L8.189 18.963L10.239 20.516L11.486 21.46C11.6322 21.5706 11.8106 21.6305 11.994 21.6305C12.1774 21.6305 12.3558 21.5706 12.502 21.46L13.749 20.516L15.799 18.963L19.971 15.84L19.981 15.832C20.8577 15.1723 21.496 14.2452 21.7994 13.1908C22.1029 12.1363 22.055 11.0118 21.663 9.987Z" fill="white"/>
</svg>
