<svg width="18" height="18" viewBox="0 0 18 18" fill="none" xmlns="http://www.w3.org/2000/svg">
<path d="M17.1575 10.6673C17.0734 10.583 16.9678 10.5231 16.8522 10.4942C16.7366 10.4653 16.6153 10.4684 16.5013 10.5033C15.25 10.8815 13.9195 10.9133 12.6515 10.595C11.3836 10.2768 10.2257 9.62052 9.30137 8.69615C8.377 7.77177 7.72073 6.61393 7.40249 5.346C7.08426 4.07807 7.11597 2.74755 7.49427 1.49622C7.52938 1.3822 7.53274 1.26076 7.50399 1.14498C7.47525 1.02919 7.41548 0.923423 7.33112 0.839062C7.24676 0.754701 7.14099 0.694933 7.0252 0.666186C6.90941 0.637439 6.78798 0.640801 6.67396 0.67591C4.94394 1.20587 3.42514 2.26797 2.33368 3.71107C1.37918 4.97833 0.796953 6.48665 0.652422 8.06658C0.507891 9.6465 0.80678 11.2354 1.51551 12.6548C2.22424 14.0743 3.31473 15.2679 4.66446 16.1018C6.0142 16.9356 7.5697 17.3765 9.15622 17.375C11.0071 17.3807 12.8088 16.779 14.2848 15.6622C15.7279 14.5707 16.79 13.0519 17.32 11.3219C17.3547 11.2083 17.3579 11.0874 17.3293 10.9722C17.3007 10.8569 17.2413 10.7515 17.1575 10.6673ZM13.4957 14.6138C12.1057 15.6608 10.3843 16.1704 8.64841 16.0488C6.91251 15.9273 5.27894 15.1828 4.04841 13.9523C2.81789 12.7219 2.07325 11.0884 1.95156 9.35251C1.82987 7.61662 2.33932 5.8952 3.38614 4.50513C4.06815 3.60448 4.94988 2.87439 5.96192 2.37232C5.90427 2.77692 5.87522 3.18508 5.87497 3.59376C5.87736 5.85566 6.77695 8.02423 8.37635 9.62363C9.97576 11.223 12.1443 12.1226 14.4062 12.125C14.8157 12.1249 15.2247 12.0958 15.6301 12.0381C15.1276 13.0503 14.3969 13.932 13.4957 14.6138Z" fill="white"/>
</svg>
